<svg width="157" height="207" viewBox="0 0 157 207" fill="none" xmlns="http://www.w3.org/2000/svg">
<g filter="url(#filter0_d_2454_16390)">
<g clip-path="url(#clip0_2454_16390)">
<path d="M150.249 198.91C151.707 198.91 152.889 197.728 152.889 196.27C152.889 194.812 151.707 193.63 150.249 193.63C148.791 193.63 147.609 194.812 147.609 196.27C147.609 197.728 148.791 198.91 150.249 198.91Z" fill="#3B82F6"/>
<path d="M126.31 198.91C127.768 198.91 128.95 197.728 128.95 196.27C128.95 194.812 127.768 193.63 126.31 193.63C124.852 193.63 123.67 194.812 123.67 196.27C123.67 197.728 124.852 198.91 126.31 198.91Z" fill="#3B82F6"/>
<path d="M102.38 198.91C102.905 198.912 103.418 198.759 103.855 198.469C104.292 198.179 104.634 197.765 104.836 197.281C105.038 196.797 105.092 196.264 104.991 195.75C104.889 195.235 104.638 194.762 104.268 194.39C103.897 194.018 103.425 193.765 102.911 193.662C102.397 193.559 101.863 193.611 101.379 193.811C100.894 194.011 100.479 194.351 100.188 194.787C99.896 195.223 99.7402 195.736 99.7402 196.26C99.7402 196.961 100.018 197.634 100.513 198.131C101.008 198.627 101.679 198.908 102.38 198.91Z" fill="#3B82F6"/>
<path d="M78.4498 198.91C78.9739 198.91 79.4863 198.755 79.9221 198.464C80.3579 198.173 80.6975 197.759 80.8981 197.274C81.0986 196.79 81.1511 196.257 81.0488 195.743C80.9466 195.229 80.6942 194.757 80.3236 194.387C79.953 194.016 79.4808 193.764 78.9668 193.661C78.4527 193.559 77.9199 193.612 77.4357 193.812C76.9514 194.013 76.5376 194.352 76.2465 194.788C75.9553 195.224 75.7998 195.736 75.7998 196.26C75.7998 196.608 75.8683 196.953 76.0015 197.274C76.1346 197.596 76.3299 197.888 76.5759 198.134C76.822 198.38 77.1142 198.576 77.4357 198.709C77.7572 198.842 78.1018 198.91 78.4498 198.91Z" fill="#3B82F6"/>
<path d="M54.5101 198.91C55.9681 198.91 57.1501 197.728 57.1501 196.27C57.1501 194.812 55.9681 193.63 54.5101 193.63C53.0521 193.63 51.8701 194.812 51.8701 196.27C51.8701 197.728 53.0521 198.91 54.5101 198.91Z" fill="#3B82F6"/>
<path d="M31.5901 198.595C32.9386 198.041 33.5823 196.498 33.0279 195.15C32.4735 193.801 30.9308 193.157 29.5823 193.712C28.2338 194.266 27.5901 195.809 28.1445 197.157C28.6989 198.506 30.2416 199.15 31.5901 198.595Z" fill="#3B82F6"/>
<path d="M6.65017 193.66C6.1252 193.658 5.61153 193.812 5.17421 194.103C4.7369 194.393 4.39568 194.807 4.19387 195.291C3.99206 195.776 3.93874 196.31 4.04067 196.825C4.1426 197.34 4.39517 197.813 4.76638 198.184C5.13759 198.555 5.61065 198.808 6.12563 198.91C6.64061 199.012 7.17433 198.958 7.65896 198.756C8.14359 198.555 8.55737 198.214 8.8478 197.776C9.13822 197.339 9.29216 196.825 9.29018 196.3C9.28755 195.601 9.00858 194.931 8.51406 194.436C8.01953 193.942 7.34953 193.663 6.65017 193.66Z" fill="#3B82F6"/>
<path d="M150.249 177.5C151.707 177.5 152.889 176.318 152.889 174.86C152.889 173.402 151.707 172.22 150.249 172.22C148.791 172.22 147.609 173.402 147.609 174.86C147.609 176.318 148.791 177.5 150.249 177.5Z" fill="#3B82F6"/>
<path d="M126.31 177.5C127.768 177.5 128.95 176.318 128.95 174.86C128.95 173.402 127.768 172.22 126.31 172.22C124.852 172.22 123.67 173.402 123.67 174.86C123.67 176.318 124.852 177.5 126.31 177.5Z" fill="#3B82F6"/>
<path d="M102.38 177.5C102.905 177.502 103.419 177.348 103.856 177.058C104.294 176.767 104.635 176.354 104.837 175.869C105.038 175.384 105.092 174.851 104.99 174.336C104.888 173.821 104.635 173.348 104.264 172.976C103.893 172.605 103.42 172.353 102.905 172.251C102.39 172.149 101.856 172.202 101.372 172.404C100.887 172.606 100.473 172.947 100.183 173.384C99.8923 173.821 99.7383 174.335 99.7403 174.86C99.7429 175.56 100.022 176.229 100.516 176.724C101.011 177.219 101.681 177.498 102.38 177.5Z" fill="#3B82F6"/>
<path d="M78.4498 177.5C78.9744 177.5 79.4871 177.345 79.9231 177.053C80.3591 176.761 80.6988 176.347 80.8991 175.862C81.0993 175.377 81.1512 174.844 81.0481 174.329C80.9451 173.815 80.6917 173.343 80.3201 172.973C79.9485 172.603 79.4753 172.351 78.9606 172.25C78.4459 172.149 77.9128 172.203 77.4287 172.405C76.9447 172.607 76.5316 172.948 76.2416 173.385C75.9516 173.822 75.7978 174.336 75.7998 174.86C75.7998 175.208 75.8684 175.552 76.0017 175.873C76.135 176.194 76.3304 176.485 76.5766 176.73C76.8228 176.976 77.115 177.17 77.4364 177.302C77.7579 177.434 78.1023 177.502 78.4498 177.5Z" fill="#3B82F6"/>
<path d="M54.5101 177.5C55.9681 177.5 57.1501 176.318 57.1501 174.86C57.1501 173.402 55.9681 172.22 54.5101 172.22C53.0521 172.22 51.8701 173.402 51.8701 174.86C51.8701 176.318 53.0521 177.5 54.5101 177.5Z" fill="#3B82F6"/>
<path d="M31.5921 177.193C32.9406 176.639 33.5843 175.096 33.0299 173.747C32.4754 172.399 30.9328 171.755 29.5843 172.31C28.2358 172.864 27.592 174.407 28.1465 175.755C28.7009 177.104 30.2436 177.747 31.5921 177.193Z" fill="#3B82F6"/>
<path d="M6.65004 177.5C7.17459 177.5 7.68731 177.345 8.12331 177.053C8.55931 176.761 8.89899 176.347 9.09926 175.862C9.29954 175.377 9.3515 174.844 9.24843 174.329C9.14537 173.815 8.89189 173.343 8.52028 172.973C8.14867 172.603 7.67561 172.351 7.16091 172.25C6.6462 172.149 6.11309 172.203 5.62905 172.405C5.145 172.607 4.73177 172.948 4.44179 173.385C4.15181 173.822 3.99804 174.336 4.00002 174.86C4.00002 175.208 4.06863 175.552 4.20192 175.873C4.33522 176.194 4.53067 176.485 4.77687 176.73C5.02308 176.976 5.31528 177.17 5.63674 177.302C5.95819 177.434 6.30251 177.502 6.65004 177.5Z" fill="#3B82F6"/>
<path d="M150.249 156.09C151.707 156.09 152.889 154.908 152.889 153.45C152.889 151.992 151.707 150.81 150.249 150.81C148.791 150.81 147.609 151.992 147.609 153.45C147.609 154.908 148.791 156.09 150.249 156.09Z" fill="#3B82F6"/>
<path d="M126.31 156.09C127.768 156.09 128.95 154.908 128.95 153.45C128.95 151.992 127.768 150.81 126.31 150.81C124.852 150.81 123.67 151.992 123.67 153.45C123.67 154.908 124.852 156.09 126.31 156.09Z" fill="#3B82F6"/>
<path d="M102.38 156.1C102.905 156.102 103.418 155.948 103.855 155.658C104.292 155.368 104.634 154.955 104.836 154.471C105.038 153.987 105.092 153.454 104.991 152.939C104.889 152.424 104.638 151.951 104.268 151.58C103.897 151.208 103.425 150.955 102.911 150.851C102.397 150.748 101.863 150.8 101.379 151.001C100.894 151.201 100.479 151.541 100.188 151.977C99.896 152.413 99.7402 152.925 99.7402 153.45C99.7402 154.151 100.018 154.823 100.513 155.32C101.008 155.817 101.679 156.097 102.38 156.1Z" fill="#3B82F6"/>
<path d="M78.4498 156.1C78.9739 156.1 79.4863 155.944 79.9221 155.653C80.3579 155.362 80.6975 154.948 80.8981 154.464C81.0986 153.98 81.1511 153.447 81.0488 152.933C80.9466 152.419 80.6942 151.947 80.3236 151.576C79.953 151.205 79.4808 150.953 78.9668 150.851C78.4527 150.748 77.9199 150.801 77.4357 151.002C76.9514 151.202 76.5376 151.542 76.2465 151.978C75.9553 152.413 75.7998 152.926 75.7998 153.45C75.7998 153.798 75.8683 154.142 76.0015 154.464C76.1346 154.785 76.3299 155.078 76.5759 155.324C76.822 155.57 77.1142 155.765 77.4357 155.898C77.7572 156.031 78.1018 156.1 78.4498 156.1Z" fill="#3B82F6"/>
<path d="M54.5101 156.09C55.9681 156.09 57.1501 154.908 57.1501 153.45C57.1501 151.992 55.9681 150.81 54.5101 150.81C53.0521 150.81 51.8701 151.992 51.8701 153.45C51.8701 154.908 53.0521 156.09 54.5101 156.09Z" fill="#3B82F6"/>
<path d="M31.5911 155.792C32.9396 155.237 33.5833 153.694 33.0289 152.346C32.4744 150.997 30.9318 150.354 29.5833 150.908C28.2348 151.463 27.591 153.005 28.1455 154.354C28.6999 155.702 30.2426 156.346 31.5911 155.792Z" fill="#3B82F6"/>
<path d="M6.65002 156.1C7.17414 156.1 7.68652 155.944 8.12231 155.653C8.5581 155.362 8.89769 154.948 9.09827 154.464C9.29884 153.98 9.3514 153.447 9.24915 152.933C9.14689 152.419 8.89454 151.947 8.52393 151.576C8.15332 151.205 7.68104 150.953 7.16699 150.851C6.65294 150.748 6.12021 150.801 5.63599 151.002C5.15176 151.202 4.73784 151.542 4.44666 151.978C4.15547 152.413 4 152.926 4 153.45C4 154.153 4.27927 154.827 4.77625 155.324C5.27322 155.821 5.9472 156.1 6.65002 156.1Z" fill="#3B82F6"/>
<path d="M150.249 134.69C151.707 134.69 152.889 133.508 152.889 132.05C152.889 130.592 151.707 129.41 150.249 129.41C148.791 129.41 147.609 130.592 147.609 132.05C147.609 133.508 148.791 134.69 150.249 134.69Z" fill="#3B82F6"/>
<path d="M126.31 134.69C127.768 134.69 128.95 133.508 128.95 132.05C128.95 130.592 127.768 129.41 126.31 129.41C124.852 129.41 123.67 130.592 123.67 132.05C123.67 133.508 124.852 134.69 126.31 134.69Z" fill="#3B82F6"/>
<path d="M102.38 134.66C102.905 134.662 103.419 134.508 103.856 134.218C104.294 133.927 104.635 133.514 104.837 133.029C105.038 132.544 105.092 132.011 104.99 131.496C104.888 130.981 104.635 130.508 104.264 130.137C103.893 129.765 103.42 129.513 102.905 129.411C102.39 129.309 101.856 129.362 101.372 129.564C100.887 129.766 100.473 130.107 100.183 130.544C99.8923 130.982 99.7383 131.495 99.7403 132.02C99.7429 132.72 100.022 133.39 100.516 133.884C101.011 134.379 101.681 134.658 102.38 134.66Z" fill="#3B82F6"/>
<path d="M78.4498 134.66C78.9744 134.66 79.4871 134.505 79.9231 134.213C80.3591 133.921 80.6988 133.507 80.8991 133.022C81.0993 132.537 81.1512 132.004 81.0481 131.49C80.9451 130.975 80.6917 130.503 80.3201 130.133C79.9485 129.763 79.4753 129.511 78.9606 129.41C78.4459 129.309 77.9128 129.363 77.4287 129.565C76.9447 129.767 76.5316 130.108 76.2416 130.545C75.9516 130.982 75.7978 131.496 75.7998 132.02C75.7998 132.368 75.8684 132.712 76.0017 133.033C76.135 133.354 76.3304 133.645 76.5766 133.891C76.8228 134.136 77.115 134.33 77.4364 134.462C77.7579 134.594 78.1023 134.662 78.4498 134.66Z" fill="#3B82F6"/>
<path d="M54.5101 134.69C55.9681 134.69 57.1501 133.508 57.1501 132.05C57.1501 130.592 55.9681 129.41 54.5101 129.41C53.0521 129.41 51.8701 130.592 51.8701 132.05C51.8701 133.508 53.0521 134.69 54.5101 134.69Z" fill="#3B82F6"/>
<path d="M31.594 134.389C32.9425 133.835 33.5863 132.292 33.0318 130.944C32.4774 129.595 30.9347 128.951 29.5862 129.506C28.2377 130.06 27.594 131.603 28.1484 132.951C28.7029 134.3 30.2455 134.944 31.594 134.389Z" fill="#3B82F6"/>
<path d="M6.65004 134.66C7.17459 134.66 7.68731 134.505 8.12331 134.213C8.55931 133.921 8.89899 133.507 9.09926 133.022C9.29954 132.537 9.3515 132.004 9.24843 131.49C9.14537 130.975 8.89189 130.503 8.52028 130.133C8.14867 129.763 7.67561 129.511 7.16091 129.41C6.6462 129.309 6.11309 129.363 5.62905 129.565C5.145 129.767 4.73177 130.108 4.44179 130.545C4.15181 130.982 3.99804 131.496 4.00002 132.02C4.00002 132.368 4.06863 132.712 4.20192 133.033C4.33522 133.354 4.53067 133.645 4.77687 133.891C5.02308 134.136 5.31528 134.33 5.63674 134.462C5.95819 134.594 6.30251 134.662 6.65004 134.66Z" fill="#3B82F6"/>
<path d="M150.249 113.28C151.707 113.28 152.889 112.098 152.889 110.64C152.889 109.182 151.707 108 150.249 108C148.791 108 147.609 109.182 147.609 110.64C147.609 112.098 148.791 113.28 150.249 113.28Z" fill="#3B82F6"/>
<path d="M126.31 113.28C127.768 113.28 128.95 112.098 128.95 110.64C128.95 109.182 127.768 108 126.31 108C124.852 108 123.67 109.182 123.67 110.64C123.67 112.098 124.852 113.28 126.31 113.28Z" fill="#3B82F6"/>
<path d="M102.38 113.29C102.905 113.292 103.418 113.139 103.855 112.849C104.292 112.559 104.634 112.145 104.836 111.661C105.038 111.177 105.092 110.644 104.991 110.129C104.889 109.615 104.638 109.142 104.268 108.77C103.897 108.398 103.425 108.145 102.911 108.042C102.397 107.939 101.863 107.991 101.379 108.191C100.894 108.391 100.479 108.731 100.188 109.167C99.896 109.603 99.7402 110.116 99.7402 110.64C99.7402 111.341 100.018 112.014 100.513 112.511C101.008 113.007 101.679 113.288 102.38 113.29Z" fill="#3B82F6"/>
<path d="M78.4498 113.29C78.9739 113.29 79.4863 113.135 79.9221 112.844C80.3579 112.552 80.6975 112.139 80.8981 111.654C81.0986 111.17 81.1511 110.637 81.0488 110.123C80.9466 109.609 80.6942 109.137 80.3236 108.766C79.953 108.396 79.4808 108.143 78.9668 108.041C78.4527 107.939 77.9199 107.991 77.4357 108.192C76.9514 108.393 76.5376 108.732 76.2465 109.168C75.9553 109.604 75.7998 110.116 75.7998 110.64C75.7998 110.988 75.8683 111.333 76.0015 111.654C76.1346 111.976 76.3299 112.268 76.5759 112.514C76.822 112.76 77.1142 112.955 77.4357 113.089C77.7572 113.222 78.1018 113.29 78.4498 113.29Z" fill="#3B82F6"/>
<path d="M54.5101 113.28C55.9681 113.28 57.1501 112.098 57.1501 110.64C57.1501 109.182 55.9681 108 54.5101 108C53.0521 108 51.8701 109.182 51.8701 110.64C51.8701 112.098 53.0521 113.28 54.5101 113.28Z" fill="#3B82F6"/>
<path d="M31.592 112.977C32.9406 112.423 33.5843 110.88 33.0298 109.531C32.4754 108.183 30.9328 107.539 29.5843 108.094C28.2358 108.648 27.592 110.191 28.1465 111.539C28.7009 112.888 30.2435 113.532 31.592 112.977Z" fill="#3B82F6"/>
<path d="M6.65002 113.29C7.17414 113.29 7.68652 113.135 8.12231 112.844C8.5581 112.552 8.89769 112.139 9.09827 111.654C9.29884 111.17 9.3514 110.637 9.24915 110.123C9.14689 109.609 8.89454 109.137 8.52393 108.766C8.15332 108.396 7.68104 108.143 7.16699 108.041C6.65294 107.939 6.12021 107.991 5.63599 108.192C5.15176 108.393 4.73784 108.732 4.44666 109.168C4.15547 109.604 4 110.116 4 110.64C4 111.343 4.27927 112.017 4.77625 112.514C5.27322 113.011 5.9472 113.29 6.65002 113.29Z" fill="#3B82F6"/>
</g>
<g clip-path="url(#clip1_2454_16390)">
<path d="M150.249 90.9099C151.707 90.9099 152.889 89.7279 152.889 88.2699C152.889 86.8119 151.707 85.6299 150.249 85.6299C148.791 85.6299 147.609 86.8119 147.609 88.2699C147.609 89.7279 148.791 90.9099 150.249 90.9099Z" fill="#3B82F6"/>
<path d="M126.31 90.9099C127.768 90.9099 128.95 89.7279 128.95 88.2699C128.95 86.8119 127.768 85.6299 126.31 85.6299C124.852 85.6299 123.67 86.8119 123.67 88.2699C123.67 89.7279 124.852 90.9099 126.31 90.9099Z" fill="#3B82F6"/>
<path d="M102.38 90.9104C102.905 90.9123 103.418 90.7586 103.855 90.4686C104.292 90.1787 104.634 89.7654 104.836 89.2814C105.038 88.7973 105.092 88.2642 104.991 87.7495C104.889 87.2348 104.638 86.7617 104.268 86.3901C103.897 86.0185 103.425 85.7651 102.911 85.662C102.397 85.5589 101.863 85.6108 101.379 85.8111C100.894 86.0114 100.479 86.3511 100.188 86.7871C99.896 87.2231 99.7402 87.7358 99.7402 88.2603C99.7402 88.9614 100.018 89.6339 100.513 90.1306C101.008 90.6273 101.679 90.9077 102.38 90.9104Z" fill="#3B82F6"/>
<path d="M78.4498 90.9104C78.9739 90.9104 79.4863 90.7549 79.9221 90.4638C80.3579 90.1726 80.6975 89.7587 80.8981 89.2745C81.0986 88.7903 81.1511 88.2574 81.0488 87.7434C80.9466 87.2293 80.6942 86.7572 80.3236 86.3865C79.953 86.0159 79.4808 85.7635 78.9668 85.6613C78.4527 85.559 77.9199 85.6115 77.4357 85.8121C76.9514 86.0127 76.5376 86.3523 76.2465 86.7881C75.9553 87.2239 75.7998 87.7362 75.7998 88.2603C75.7998 88.6083 75.8683 88.953 76.0015 89.2745C76.1346 89.596 76.3299 89.8881 76.5759 90.1342C76.822 90.3802 77.1142 90.5755 77.4357 90.7087C77.7572 90.8419 78.1018 90.9104 78.4498 90.9104Z" fill="#3B82F6"/>
<path d="M54.5101 90.9099C55.9681 90.9099 57.1501 89.7279 57.1501 88.2699C57.1501 86.8119 55.9681 85.6299 54.5101 85.6299C53.0521 85.6299 51.8701 86.8119 51.8701 88.2699C51.8701 89.7279 53.0521 90.9099 54.5101 90.9099Z" fill="#3B82F6"/>
<path d="M31.5901 90.5952C32.9386 90.0408 33.5823 88.4982 33.0279 87.1497C32.4735 85.8012 30.9308 85.1575 29.5823 85.7119C28.2338 86.2664 27.5901 87.809 28.1445 89.1575C28.6989 90.506 30.2416 91.1497 31.5901 90.5952Z" fill="#3B82F6"/>
<path d="M6.65017 85.6602C6.1252 85.6582 5.61153 85.8122 5.17421 86.1026C4.7369 86.393 4.39568 86.8068 4.19387 87.2915C3.99206 87.7761 3.93874 88.3097 4.04067 88.8247C4.1426 89.3397 4.39517 89.8128 4.76638 90.184C5.13759 90.5552 5.61065 90.8078 6.12563 90.9097C6.64061 91.0116 7.17433 90.9583 7.65896 90.7565C8.14359 90.5547 8.55737 90.2135 8.8478 89.7762C9.13822 89.3389 9.29216 88.8252 9.29018 88.3002C9.28755 87.6008 9.00858 86.9308 8.51406 86.4363C8.01953 85.9418 7.34953 85.6628 6.65017 85.6602Z" fill="#3B82F6"/>
<path d="M150.249 69.4997C151.707 69.4997 152.889 68.3178 152.889 66.8597C152.889 65.4017 151.707 64.2197 150.249 64.2197C148.791 64.2197 147.609 65.4017 147.609 66.8597C147.609 68.3178 148.791 69.4997 150.249 69.4997Z" fill="#3B82F6"/>
<path d="M126.31 69.4997C127.768 69.4997 128.95 68.3178 128.95 66.8597C128.95 65.4017 127.768 64.2197 126.31 64.2197C124.852 64.2197 123.67 65.4017 123.67 66.8597C123.67 68.3178 124.852 69.4997 126.31 69.4997Z" fill="#3B82F6"/>
<path d="M102.38 69.5002C102.905 69.5022 103.419 69.3482 103.856 69.0578C104.294 68.7673 104.635 68.3535 104.837 67.8689C105.038 67.3843 105.092 66.8506 104.99 66.3357C104.888 65.8207 104.635 65.3475 104.264 64.9763C103.893 64.6051 103.42 64.3526 102.905 64.2506C102.39 64.1487 101.856 64.202 101.372 64.4038C100.887 64.6056 100.473 64.9469 100.183 65.3842C99.8923 65.8215 99.7383 66.3352 99.7403 66.8602C99.7429 67.5595 100.022 68.2295 100.516 68.724C101.011 69.2185 101.681 69.4976 102.38 69.5002Z" fill="#3B82F6"/>
<path d="M78.4498 69.5002C78.9744 69.5002 79.4871 69.3445 79.9231 69.0529C80.3591 68.7612 80.6988 68.3468 80.8991 67.862C81.0993 67.3772 81.1512 66.8438 81.0481 66.3295C80.9451 65.8152 80.6917 65.343 80.3201 64.9728C79.9485 64.6026 79.4753 64.351 78.9606 64.2499C78.4459 64.1488 77.9128 64.2027 77.4287 64.4048C76.9447 64.6069 76.5316 64.9481 76.2416 65.3852C75.9516 65.8223 75.7978 66.3356 75.7998 66.8602C75.7998 67.2077 75.8684 67.5518 76.0017 67.8728C76.135 68.1937 76.3304 68.4852 76.5766 68.7305C76.8228 68.9758 77.115 69.17 77.4364 69.3021C77.7579 69.4342 78.1023 69.5015 78.4498 69.5002Z" fill="#3B82F6"/>
<path d="M54.5101 69.4997C55.9681 69.4997 57.1501 68.3178 57.1501 66.8597C57.1501 65.4017 55.9681 64.2197 54.5101 64.2197C53.0521 64.2197 51.8701 65.4017 51.8701 66.8597C51.8701 68.3178 53.0521 69.4997 54.5101 69.4997Z" fill="#3B82F6"/>
<path d="M31.5921 69.193C32.9406 68.6385 33.5843 67.0959 33.0299 65.7474C32.4754 64.3989 30.9328 63.7551 29.5843 64.3096C28.2358 64.864 27.592 66.4067 28.1465 67.7552C28.7009 69.1037 30.2436 69.7474 31.5921 69.193Z" fill="#3B82F6"/>
<path d="M6.65004 69.5002C7.17459 69.5002 7.68731 69.3445 8.12331 69.0529C8.55931 68.7612 8.89899 68.3468 9.09926 67.862C9.29954 67.3772 9.3515 66.8438 9.24843 66.3295C9.14537 65.8152 8.89189 65.343 8.52028 64.9728C8.14867 64.6026 7.67561 64.351 7.16091 64.2499C6.6462 64.1488 6.11309 64.2027 5.62905 64.4048C5.145 64.6069 4.73177 64.9481 4.44179 65.3852C4.15181 65.8223 3.99804 66.3356 4.00002 66.8602C4.00002 67.2077 4.06863 67.5518 4.20192 67.8728C4.33522 68.1937 4.53067 68.4852 4.77687 68.7305C5.02308 68.9758 5.31528 69.17 5.63674 69.3021C5.95819 69.4342 6.30251 69.5015 6.65004 69.5002Z" fill="#3B82F6"/>
<path d="M150.249 48.0896C151.707 48.0896 152.889 46.9076 152.889 45.4496C152.889 43.9915 151.707 42.8096 150.249 42.8096C148.791 42.8096 147.609 43.9915 147.609 45.4496C147.609 46.9076 148.791 48.0896 150.249 48.0896Z" fill="#3B82F6"/>
<path d="M126.31 48.0896C127.768 48.0896 128.95 46.9076 128.95 45.4496C128.95 43.9915 127.768 42.8096 126.31 42.8096C124.852 42.8096 123.67 43.9915 123.67 45.4496C123.67 46.9076 124.852 48.0896 126.31 48.0896Z" fill="#3B82F6"/>
<path d="M102.38 48.0998C102.905 48.1018 103.418 47.9481 103.855 47.6581C104.292 47.3681 104.634 46.9549 104.836 46.4708C105.038 45.9868 105.092 45.4537 104.991 44.939C104.889 44.4243 104.638 43.9512 104.268 43.5795C103.897 43.2079 103.425 42.9545 102.911 42.8515C102.397 42.7484 101.863 42.8003 101.379 43.0006C100.894 43.2008 100.479 43.5405 100.188 43.9765C99.896 44.4125 99.7402 44.9252 99.7402 45.4498C99.7402 46.1509 100.018 46.8234 100.513 47.3201C101.008 47.8168 101.679 48.0972 102.38 48.0998Z" fill="#3B82F6"/>
<path d="M78.4498 48.0998C78.9739 48.0998 79.4863 47.9444 79.9221 47.6532C80.3579 47.362 80.6975 46.9482 80.8981 46.4639C81.0986 45.9797 81.1511 45.4469 81.0488 44.9328C80.9466 44.4188 80.6942 43.9465 80.3236 43.5759C79.953 43.2053 79.4808 42.953 78.9668 42.8507C78.4527 42.7485 77.9199 42.801 77.4357 43.0015C76.9514 43.2021 76.5376 43.5418 76.2465 43.9776C75.9553 44.4133 75.7998 44.9257 75.7998 45.4498C75.7998 45.7978 75.8683 46.1424 76.0015 46.4639C76.1346 46.7855 76.3299 47.0775 76.5759 47.3236C76.822 47.5697 77.1142 47.7649 77.4357 47.8981C77.7572 48.0313 78.1018 48.0998 78.4498 48.0998Z" fill="#3B82F6"/>
<path d="M54.5101 48.0896C55.9681 48.0896 57.1501 46.9076 57.1501 45.4496C57.1501 43.9915 55.9681 42.8096 54.5101 42.8096C53.0521 42.8096 51.8701 43.9915 51.8701 45.4496C51.8701 46.9076 53.0521 48.0896 54.5101 48.0896Z" fill="#3B82F6"/>
<path d="M31.5911 47.7915C32.9396 47.2371 33.5833 45.6944 33.0289 44.3459C32.4744 42.9974 30.9318 42.3538 29.5833 42.9082C28.2348 43.4626 27.591 45.0052 28.1455 46.3537C28.6999 47.7022 30.2426 48.346 31.5911 47.7915Z" fill="#3B82F6"/>
<path d="M6.65002 48.0998C7.17414 48.0998 7.68652 47.9444 8.12231 47.6532C8.5581 47.362 8.89769 46.9482 9.09827 46.4639C9.29884 45.9797 9.3514 45.4469 9.24915 44.9328C9.14689 44.4188 8.89454 43.9465 8.52393 43.5759C8.15332 43.2053 7.68104 42.953 7.16699 42.8507C6.65294 42.7485 6.12021 42.801 5.63599 43.0015C5.15176 43.2021 4.73784 43.5418 4.44666 43.9776C4.15547 44.4133 4 44.9257 4 45.4498C4 46.1526 4.27927 46.8266 4.77625 47.3236C5.27322 47.8206 5.9472 48.0998 6.65002 48.0998Z" fill="#3B82F6"/>
<path d="M150.249 26.6902C151.707 26.6902 152.889 25.5082 152.889 24.0502C152.889 22.5921 151.707 21.4102 150.249 21.4102C148.791 21.4102 147.609 22.5921 147.609 24.0502C147.609 25.5082 148.791 26.6902 150.249 26.6902Z" fill="#3B82F6"/>
<path d="M126.31 26.6902C127.768 26.6902 128.95 25.5082 128.95 24.0502C128.95 22.5921 127.768 21.4102 126.31 21.4102C124.852 21.4102 123.67 22.5921 123.67 24.0502C123.67 25.5082 124.852 26.6902 126.31 26.6902Z" fill="#3B82F6"/>
<path d="M102.38 26.6604C102.905 26.6623 103.419 26.5083 103.856 26.2179C104.294 25.9275 104.635 25.5137 104.837 25.0291C105.038 24.5444 105.092 24.0108 104.99 23.4958C104.888 22.9808 104.635 22.5078 104.264 22.1366C103.893 21.7653 103.42 21.5127 102.905 21.4108C102.39 21.3089 101.856 21.3622 101.372 21.564C100.887 21.7658 100.473 22.107 100.183 22.5443C99.8923 22.9817 99.7383 23.4954 99.7403 24.0203C99.7429 24.7197 100.022 25.3897 100.516 25.8842C101.011 26.3788 101.681 26.6577 102.38 26.6604Z" fill="#3B82F6"/>
<path d="M78.4498 26.6604C78.9744 26.6604 79.4871 26.5047 79.9231 26.213C80.3591 25.9214 80.6988 25.507 80.8991 25.0222C81.0993 24.5374 81.1512 24.004 81.0481 23.4897C80.9451 22.9754 80.6917 22.5032 80.3201 22.133C79.9485 21.7628 79.4753 21.5112 78.9606 21.4101C78.4459 21.3089 77.9128 21.3629 77.4287 21.565C76.9447 21.7671 76.5316 22.1083 76.2416 22.5454C75.9516 22.9825 75.7978 23.4958 75.7998 24.0203C75.7998 24.3679 75.8684 24.712 76.0017 25.033C76.135 25.3539 76.3304 25.6454 76.5766 25.8906C76.8228 26.1359 77.115 26.3302 77.4364 26.4623C77.7579 26.5944 78.1023 26.6617 78.4498 26.6604Z" fill="#3B82F6"/>
<path d="M54.5101 26.6902C55.9681 26.6902 57.1501 25.5082 57.1501 24.0502C57.1501 22.5921 55.9681 21.4102 54.5101 21.4102C53.0521 21.4102 51.8701 22.5921 51.8701 24.0502C51.8701 25.5082 53.0521 26.6902 54.5101 26.6902Z" fill="#3B82F6"/>
<path d="M31.594 26.3892C32.9425 25.8348 33.5863 24.2922 33.0318 22.9437C32.4774 21.5952 30.9347 20.9514 29.5862 21.5059C28.2377 22.0603 27.594 23.603 28.1484 24.9515C28.7029 26.3 30.2455 26.9437 31.594 26.3892Z" fill="#3B82F6"/>
<path d="M6.65004 26.6604C7.17459 26.6604 7.68731 26.5047 8.12331 26.213C8.55931 25.9214 8.89899 25.507 9.09926 25.0222C9.29954 24.5374 9.3515 24.004 9.24843 23.4897C9.14537 22.9754 8.89189 22.5032 8.52028 22.133C8.14867 21.7628 7.67561 21.5112 7.16091 21.4101C6.6462 21.3089 6.11309 21.3629 5.62905 21.565C5.145 21.7671 4.73177 22.1083 4.44179 22.5454C4.15181 22.9825 3.99804 23.4958 4.00002 24.0203C4.00002 24.3679 4.06863 24.712 4.20192 25.033C4.33522 25.3539 4.53067 25.6454 4.77687 25.8906C5.02308 26.1359 5.31528 26.3302 5.63674 26.4623C5.95819 26.5944 6.30251 26.6617 6.65004 26.6604Z" fill="#3B82F6"/>
<path d="M150.249 5.28C151.707 5.28 152.889 4.09803 152.889 2.64C152.889 1.18197 151.707 0 150.249 0C148.791 0 147.609 1.18197 147.609 2.64C147.609 4.09803 148.791 5.28 150.249 5.28Z" fill="#3B82F6"/>
<path d="M126.31 5.28C127.768 5.28 128.95 4.09803 128.95 2.64C128.95 1.18197 127.768 0 126.31 0C124.852 0 123.67 1.18197 123.67 2.64C123.67 4.09803 124.852 5.28 126.31 5.28Z" fill="#3B82F6"/>
<path d="M102.38 5.29024C102.905 5.29222 103.418 5.13851 103.855 4.84853C104.292 4.55855 104.634 4.14532 104.836 3.66127C105.038 3.17723 105.092 2.64412 104.991 2.12941C104.889 1.61471 104.638 1.14159 104.268 0.769978C103.897 0.398368 103.425 0.144953 102.911 0.0418894C102.397 -0.0611745 101.863 -0.00927669 101.379 0.190998C100.894 0.391273 100.479 0.730946 100.188 1.16695C99.896 1.60295 99.7402 2.11567 99.7402 2.64022C99.7402 3.34131 100.018 4.01383 100.513 4.51052C101.008 5.0072 101.679 5.2876 102.38 5.29024Z" fill="#3B82F6"/>
<path d="M78.4498 5.29023C78.9739 5.29023 79.4863 5.13483 79.9221 4.84364C80.3579 4.55245 80.6975 4.13859 80.8981 3.65437C81.0986 3.17015 81.1511 2.63729 81.0488 2.12324C80.9466 1.60919 80.6942 1.13698 80.3236 0.76637C79.953 0.395761 79.4808 0.143401 78.9668 0.04115C78.4527 -0.0611008 77.9199 -0.00860433 77.4357 0.191968C76.9514 0.39254 76.5376 0.732191 76.2465 1.16798C75.9553 1.60377 75.7998 2.11609 75.7998 2.64021C75.7998 2.98821 75.8683 3.33286 76.0015 3.65437C76.1346 3.97588 76.3299 4.26798 76.5759 4.51405C76.822 4.76013 77.1142 4.95534 77.4357 5.08851C77.7572 5.22169 78.1018 5.29023 78.4498 5.29023Z" fill="#3B82F6"/>
<path d="M54.5101 5.28C55.9681 5.28 57.1501 4.09803 57.1501 2.64C57.1501 1.18197 55.9681 0 54.5101 0C53.0521 0 51.8701 1.18197 51.8701 2.64C51.8701 4.09803 53.0521 5.28 54.5101 5.28Z" fill="#3B82F6"/>
<path d="M31.592 4.97708C32.9406 4.42265 33.5843 2.87999 33.0298 1.53149C32.4754 0.182988 30.9328 -0.460681 29.5843 0.0937553C28.2358 0.648191 27.592 2.19079 28.1465 3.53929C28.7009 4.88779 30.2435 5.53152 31.592 4.97708Z" fill="#3B82F6"/>
<path d="M6.65002 5.29023C7.17414 5.29023 7.68652 5.13483 8.12231 4.84364C8.5581 4.55245 8.89769 4.13859 9.09827 3.65437C9.29884 3.17015 9.3514 2.63729 9.24915 2.12324C9.14689 1.60919 8.89454 1.13698 8.52393 0.76637C8.15332 0.395761 7.68104 0.143401 7.16699 0.04115C6.65294 -0.0611008 6.12021 -0.00860433 5.63599 0.191968C5.15176 0.39254 4.73784 0.732191 4.44666 1.16798C4.15547 1.60377 4 2.11609 4 2.64021C4 3.34303 4.27927 4.01708 4.77625 4.51405C5.27322 5.01102 5.9472 5.29023 6.65002 5.29023Z" fill="#3B82F6"/>
</g>
</g>
<defs>
<filter id="filter0_d_2454_16390" x="0" y="0" width="156.89" height="206.91" filterUnits="userSpaceOnUse" color-interpolation-filters="sRGB">
<feFlood flood-opacity="0" result="BackgroundImageFix"/>
<feColorMatrix in="SourceAlpha" type="matrix" values="0 0 0 0 0 0 0 0 0 0 0 0 0 0 0 0 0 0 127 0" result="hardAlpha"/>
<feOffset dy="4"/>
<feGaussianBlur stdDeviation="2"/>
<feComposite in2="hardAlpha" operator="out"/>
<feColorMatrix type="matrix" values="0 0 0 0 0 0 0 0 0 0 0 0 0 0 0 0 0 0 0.25 0"/>
<feBlend mode="normal" in2="BackgroundImageFix" result="effect1_dropShadow_2454_16390"/>
<feBlend mode="normal" in="SourceGraphic" in2="effect1_dropShadow_2454_16390" result="shape"/>
</filter>
<clipPath id="clip0_2454_16390">
<rect width="148.89" height="90.91" fill="white" transform="translate(4 108)"/>
</clipPath>
<clipPath id="clip1_2454_16390">
<rect width="148.89" height="90.91" fill="white" transform="translate(4)"/>
</clipPath>
</defs>
</svg>
