<svg width="297" height="297" viewBox="0 0 297 297" fill="none" xmlns="http://www.w3.org/2000/svg">
<mask id="mask0_2454_16369" style="mask-type:alpha" maskUnits="userSpaceOnUse" x="4" y="0" width="289" height="289">
<circle cx="148.5" cy="144.5" r="142.507" fill="#C4C4C4" stroke="#F8BB54" stroke-width="3.98621"/>
</mask>
<g mask="url(#mask0_2454_16369)">
<path d="M-79.9766 60.6007C-79.9766 60.6007 -12.689 48.1362 4.67208 4.51112C21.2756 -37.3084 89.6704 -48.5493 89.6704 -48.5493" stroke="#A855F7" stroke-width="4.48062" stroke-miterlimit="10"/>
<path d="M-79.9766 81.5683C-79.9766 81.5683 2.57479 67.1822 23.8389 14.5292C44.1127 -35.7358 127.946 -48.5493 127.946 -48.5493" stroke="#A855F7" stroke-width="4.48062" stroke-miterlimit="10"/>
<path d="M-79.9766 102.595C-79.9766 102.595 17.7801 86.2281 42.9475 24.6638C66.9497 -34.2212 166.221 -48.5493 166.221 -48.5493" stroke="#A855F7" stroke-width="4.48062" stroke-miterlimit="10"/>
<path d="M-79.9766 123.563C-79.9766 123.563 33.0437 105.274 62.1143 34.6819C89.7869 -32.6486 204.497 -48.5493 204.497 -48.5493" stroke="#A855F7" stroke-width="4.48062" stroke-miterlimit="10"/>
<path d="M-79.9766 144.531C-79.9766 144.531 48.3072 124.32 81.2812 44.758C112.624 -31.076 242.714 -48.5493 242.714 -48.5493" stroke="#A855F7" stroke-width="4.48062" stroke-miterlimit="10"/>
<path d="M-79.9766 165.557C-79.9766 165.557 63.5125 143.424 100.39 54.8341C135.519 -29.5618 280.989 -48.5493 280.989 -48.5493" stroke="#A855F7" stroke-width="4.48062" stroke-miterlimit="10"/>
<path d="M-79.9766 186.525C-79.9766 186.525 78.7761 162.412 119.557 64.9107C158.356 -27.9892 319.265 -48.5493 319.265 -48.5493" stroke="#A855F7" stroke-width="4.48062" stroke-miterlimit="10"/>
<path d="M-79.9766 207.493C-79.9766 207.493 94.0398 181.457 138.665 74.9288C181.193 -26.4166 357.54 -48.5493 357.54 -48.5493" stroke="#A855F7" stroke-width="4.48062" stroke-miterlimit="10"/>
<path d="M-79.9766 228.519C-79.9766 228.519 109.245 200.562 157.832 85.063C204.031 -24.9024 395.758 -48.5493 395.758 -48.5493" stroke="#A855F7" stroke-width="4.48062" stroke-miterlimit="10"/>
<path d="M-79.9766 249.486C-79.9766 249.486 124.509 219.608 176.941 95.1395C226.868 -23.3298 434.033 -48.5493 434.033 -48.5493" stroke="#A855F7" stroke-width="4.48062" stroke-miterlimit="10"/>
<path d="M-79.9766 270.512C-79.9766 270.512 139.772 238.653 196.108 105.216C249.705 -21.7572 472.308 -48.5493 472.308 -48.5493" stroke="#A855F7" stroke-width="4.48062" stroke-miterlimit="10"/>
<path d="M-79.9766 291.482C-79.9766 291.482 154.977 257.7 215.216 115.292C272.542 -20.2425 510.583 -48.5493 510.583 -48.5493" stroke="#A855F7" stroke-width="4.48062" stroke-miterlimit="10"/>
<path d="M-79.9766 312.447C-79.9766 312.447 170.241 276.746 234.383 125.31C295.379 -18.6699 548.858 -48.5493 548.858 -48.5493" stroke="#A855F7" stroke-width="4.48062" stroke-miterlimit="10"/>
<path d="M-79.9766 333.474C-79.9766 333.474 185.505 295.792 253.55 135.444C318.216 -17.0973 587.076 -48.5493 587.076 -48.5493" stroke="#A855F7" stroke-width="4.48062" stroke-miterlimit="10"/>
<path d="M-79.9766 354.443C-79.9766 354.443 200.71 314.838 272.658 145.463C341.053 -15.5831 625.352 -48.5493 625.352 -48.5493" stroke="#A855F7" stroke-width="4.48062" stroke-miterlimit="10"/>
<path d="M-79.9766 375.413C-79.9766 375.413 215.974 333.884 291.825 155.539C363.89 -14.0105 663.627 -48.5493 663.627 -48.5493" stroke="#A855F7" stroke-width="4.48062" stroke-miterlimit="10"/>
<path d="M-79.9766 396.44C-79.9766 396.44 231.237 352.986 310.934 165.615C386.727 -12.4379 701.902 -48.5493 701.902 -48.5493" stroke="#A855F7" stroke-width="4.48062" stroke-miterlimit="10"/>
<path d="M-79.9766 417.405C-79.9766 417.405 246.442 371.976 330.101 175.691C409.565 -10.9237 740.121 -48.5493 740.121 -48.5493" stroke="#A855F7" stroke-width="4.48062" stroke-miterlimit="10"/>
</g>
</svg>
